<svg width="144" height="25" fill="none" xmlns="http://www.w3.org/2000/svg"><path fill-rule="evenodd" clip-rule="evenodd" d="M140.53 4.254a11.919 11.919 0 012.505 3.768c.631 1.455.959 3.024.965 4.611a11.973 11.973 0 01-3.442 8.39 11.634 11.634 0 01-3.767 2.492 11.892 11.892 0 01-4.647.959 12.01 12.01 0 01-8.413-3.423 11.514 11.514 0 01-2.515-3.758 11.845 11.845 0 01-.07-9.072 11.81 11.81 0 016.361-6.45 11.811 11.811 0 014.609-.96c1.597.006 3.177.332 4.646.96a11.524 11.524 0 013.768 2.483zm-.552 11.632a8.39 8.39 0 00.599-3.224l.029.01a8.395 8.395 0 00-2.39-5.964 8.358 8.358 0 00-5.899-2.512h-.173a8.277 8.277 0 00-6.031 2.426 8.32 8.32 0 00-2.44 6.04 8.24 8.24 0 002.372 5.954 8.314 8.314 0 005.908 2.531h.335a8.338 8.338 0 005.903-2.515 8.392 8.392 0 001.787-2.746zM88.68 1.07a12.21 12.21 0 018.413 3.269v.038a11.641 11.641 0 013.444 8.274 11.663 11.663 0 01-3.444 8.275 12.248 12.248 0 01-8.413 3.278H81.9V1.071h6.779zm.153 3.269h-3.538v16.644h3.586a8.306 8.306 0 005.966-2.474 8.095 8.095 0 002.313-5.848 8.093 8.093 0 00-2.304-5.83 8.336 8.336 0 00-6.023-2.492zM7.63 1.11H.2v23.096h3.347v-8.36h4.217a7.467 7.467 0 005.176-2.257 7.509 7.509 0 002.128-5.241 6.862 6.862 0 00-2.16-5.13A7.456 7.456 0 007.63 1.11zm2.925 10.334a3.699 3.699 0 01-2.925 1.276H3.548V4.196h4.083A3.93 3.93 0 0110.576 5.3a4.183 4.183 0 011.1 3.01 4.581 4.581 0 01-1.12 3.135zM19.764 1.11h-3.395v23.096h3.395V1.11zm10.24 6.29a8.84 8.84 0 015.793 2.185 8.39 8.39 0 012.745 6.079 9.94 9.94 0 01-.096 1.486v.086H25.28a4.171 4.171 0 001.501 2.81 4.687 4.687 0 003.251 1.15 5.028 5.028 0 003.825-1.62H37.9l-.067.134a8.687 8.687 0 01-3.155 3.451 8.425 8.425 0 01-4.56 1.314 8.43 8.43 0 01-6.012-2.479 8.478 8.478 0 01-2.479-6.025 8.734 8.734 0 011.09-4.286 8.302 8.302 0 013.03-3.116 8.091 8.091 0 014.255-1.17zm4.876 6.998a5.11 5.11 0 00-1.73-2.627 4.686 4.686 0 00-3.05-1.073 4.773 4.773 0 00-3.127 1.064 5.15 5.15 0 00-1.654 2.636h9.56zM52.539 8.53a8.491 8.491 0 00-8.53-.011 8.521 8.521 0 00-3.12 3.133 8.551 8.551 0 00-1.133 4.28 8.354 8.354 0 002.409 5.944 8.412 8.412 0 005.956 2.588h.163a6.382 6.382 0 003.184-.824c.78-.401 1.44-1.003 1.912-1.745v2.31h3.394v-8.274a8.503 8.503 0 00-1.114-4.27 8.473 8.473 0 00-3.102-3.131h-.02zm-.584 3.662a5.3 5.3 0 011.435 3.74 5.219 5.219 0 01-1.454 3.748 4.781 4.781 0 01-3.623 1.525 4.912 4.912 0 01-3.662-1.525 5.131 5.131 0 01-1.501-3.72 5.199 5.199 0 011.482-3.72 4.945 4.945 0 013.68-1.515 4.864 4.864 0 013.644 1.467zm10.059.144c0 1.294 1.596 1.65 3.442 2.052 2.63.566 5.832 1.265 5.89 5.024a4.315 4.315 0 01-1.788 3.768 7.986 7.986 0 01-4.714 1.294 6.677 6.677 0 01-5.526-2.387 4.543 4.543 0 01-.956-2.877v-.096h3.25v.096a1.816 1.816 0 00.956 1.582c.718.43 1.546.64 2.381.604 1.874 0 3.04-.786 3.04-2.061 0-1.515-1.692-1.889-3.652-2.32l-.018-.004c-2.663-.584-5.661-1.241-5.661-4.915a4.054 4.054 0 011.778-3.394 7.205 7.205 0 014.312-1.323 7.061 7.061 0 014.36 1.314 4.457 4.457 0 011.712 3.691v.096h-3.26v-.096a1.633 1.633 0 00-.823-1.419 3.702 3.702 0 00-2.046-.546c-1.578 0-2.677.805-2.677 1.917zm12.984-2.732c-1.272 1.332-1.912 3.336-1.912 5.963v8.629h3.394v-8.629c0-3.058 1.233-4.679 3.566-4.679h.469V7.59h-.421a6.676 6.676 0 00-5.096 2.014zm33.731-8.495l-8.882 23.096h3.509l2.113-5.56h9.857l2.123 5.56h3.499L112.066 1.11h-3.337zm-2.103 14.381l3.767-9.702 3.776 9.702h-7.543z" fill="#fff"/></svg>